# File created by Blade
# Date/Time:  Tue Jan 27 19:14:06 2015
# Frame Rate: 120.000 fps
#------------------------------------------------------
:FULLY-SPECIFIED
:DEGREES
2958
root 4.139975 32.431429 1.136910 -3.696053 14.741526 2.019708
Spine -2.222202 9.272783 -2.157670
Head 16.145267 -21.592603 -6.474762
LeftShoulder -3.788807 -10.091454 21.369864
LeftArm -6.903875 38.361268 -104.185400
LeftForeArm 3.311483 -0.000000 10.634458
LeftHand 10.208661 -0.000000 -8.497860
LeftHandThumb1 -26.253704 0.000000 33.147579
RightShoulder -12.971587 20.934471 -56.683861
RightArm 114.954123 53.550935 150.113230
RightForeArm 34.406275 -0.000000 108.738189
RightHand 33.066405 0.000000 -19.180642
RightHandThumb1 -24.326973 -0.000000 -32.862282
LeftUpLeg 9.047109 -8.682448 -2.077269
LeftLeg 2.137154 -0.000000 -0.000000
LeftFoot -12.693021 6.040322 -21.273926
LeftToeBase 18.913553 -0.000000 -0.000000
RightUpLeg 12.808534 -5.777708 2.264769
RightLeg -1.957492 -0.000000 0.000000
RightFoot -14.981907 -20.550897 16.871745
RightToeBase 11.858105 -0.000000 -0.000000
2959
root 4.146924 32.432971 1.138056 -3.696883 14.838598 2.055027
Spine -2.279750 9.203332 -2.186973
Head 16.213322 -21.412314 -6.369281
LeftShoulder -3.826006 -10.114944 21.377163
LeftArm -6.844297 38.143048 -104.212690
LeftForeArm 3.370433 -0.000000 10.338830
LeftHand 10.230279 -0.000000 -8.618479
LeftHandThumb1 -26.253704 0.000000 33.147579
RightShoulder -13.121879 20.931136 -56.677187
RightArm 114.135842 53.910533 149.459536
RightForeArm 34.397930 -0.000000 108.765684
RightHand 33.088291 -0.000000 -18.754695
RightHandThumb1 -24.326973 -0.000000 -32.862282
LeftUpLeg 9.062240 -8.784815 -2.138491
LeftLeg 2.111661 -0.000000 -0.000000
LeftFoot -12.652305 6.107147 -21.226934
LeftToeBase 18.933452 -0.000000 -0.000000
RightUpLeg 12.846479 -5.804260 2.222664
RightLeg -1.980392 -0.000000 0.000000
RightFoot -15.012444 -20.591371 16.921932
RightToeBase 11.855747 -0.000000 -0.000000
2960
root 4.154171 32.432502 1.142057 -3.720559 14.919458 2.069028
Spine -2.316555 9.133150 -2.185941
Head 16.246398 -21.214240 -6.233101
LeftShoulder -3.916541 -10.119570 21.402778
LeftArm -6.762364 37.940407 -104.253907
LeftForeArm 3.499341 -0.000000 10.026785
LeftHand 10.171728 -0.000000 -8.332094
LeftHandThumb1 -26.253704 0.000000 33.147579
RightShoulder -13.128161 20.389938 -56.469969
RightArm 113.922415 53.946151 149.087705
RightForeArm 34.304222 0.000000 108.765076
RightHand 33.154301 -0.000000 -18.939205
RightHandThumb1 -24.326973 -0.000000 -32.862282
LeftUpLeg 9.091561 -8.854441 -2.171572
LeftLeg 2.121456 -0.000000 -0.000000
LeftFoot -12.620900 6.093001 -21.135325
LeftToeBase 18.731541 -0.000000 -0.000000
RightUpLeg 12.904268 -5.825457 2.199522
RightLeg -2.001489 -0.000000 0.000000
RightFoot -15.039077 -20.632141 16.952954
RightToeBase 11.837413 -0.000000 -0.000000
2961
root 4.160847 32.432323 1.144288 -3.737897 14.998004 2.079081
Spine -2.349814 9.075023 -2.179528
Head 16.254341 -21.047453 -6.100883
LeftShoulder -4.001611 -10.125407 21.412280
LeftArm -6.670508 37.710766 -104.276376
LeftForeArm 3.568876 0.000000 9.720007
LeftHand 10.242077 0.000000 -8.450360
LeftHandThumb1 -26.253704 0.000000 33.147579
RightShoulder -13.245918 20.034355 -56.327446
RightArm 113.489951 53.816603 148.610153
RightForeArm 33.855692 -0.000000 108.767610
RightHand 33.075056 0.000000 -18.706581
RightHandThumb1 -24.326973 -0.000000 -32.862282
LeftUpLeg 9.103738 -8.906004 -2.194271
LeftLeg 2.121992 -0.000000 -0.000000
LeftFoot -12.638186 6.088769 -21.196050
LeftToeBase 18.943176 -0.000000 -0.000000
RightUpLeg 12.951201 -5.852995 2.180446
RightLeg -2.022775 -0.000000 0.000000
RightFoot -15.067734 -20.664702 16.992165
RightToeBase 11.872863 -0.000000 -0.000000
2962
root 4.167290 32.432808 1.146522 -3.761699 15.067525 2.087602
Spine -2.369309 9.035144 -2.162876
Head 16.270561 -20.955222 -6.014212
LeftShoulder -4.081290 -10.090578 21.396771
LeftArm -6.547280 37.460152 -104.249169
LeftForeArm 3.645305 -0.000000 9.469132
LeftHand 10.182478 -0.000000 -8.287881
LeftHandThumb1 -26.253704 0.000000 33.147579
RightShoulder -13.338112 19.825181 -56.233999
RightArm 113.038282 53.896064 148.070927
RightForeArm 33.326822 -0.000000 108.784390
RightHand 33.044464 -0.000000 -18.738483
RightHandThumb1 -24.326973 -0.000000 -32.862282
LeftUpLeg 9.121318 -8.935099 -2.215186
LeftLeg 2.133867 -0.000000 -0.000000
LeftFoot -12.617264 6.063242 -21.177796
LeftToeBase 18.933394 -0.000000 -0.000000
RightUpLeg 12.992743 -5.915184 2.153503
RightLeg -2.022267 -0.000000 0.000000
RightFoot -15.084433 -20.663411 17.004610
RightToeBase 11.912458 -0.000000 -0.000000
2963
root 4.172847 32.433954 1.147183 -3.772510 15.127986 2.094892
Spine -2.399236 8.993820 -2.128948
Head 16.274128 -20.864941 -5.980930
LeftShoulder -4.138057 -10.125390 21.362970
LeftArm -6.549638 37.205415 -104.269708
LeftForeArm 3.698919 -0.000000 9.277637
LeftHand 10.231357 -0.000000 -8.243557
LeftHandThumb1 -26.253704 0.000000 33.147579
RightShoulder -13.486748 20.451034 -56.470595
RightArm 111.914563 54.676957 147.145336
RightForeArm 32.744113 -0.000000 108.870884
RightHand 32.790270 -0.000000 -18.626941
RightHandThumb1 -24.326973 -0.000000 -32.862282
LeftUpLeg 9.119854 -8.996841 -2.235814
LeftLeg 2.155851 -0.000000 -0.000000
LeftFoot -12.618976 6.069358 -21.174702
LeftToeBase 18.937585 -0.000000 -0.000000
RightUpLeg 13.019119 -5.947053 2.136334
RightLeg -2.027033 -0.000000 0.000000
RightFoot -15.090465 -20.686265 17.021034
RightToeBase 11.905072 -0.000000 -0.000000
2964
root 4.177934 32.433663 1.147900 -3.785616 15.164617 2.105656
Spine -2.415633 8.980165 -2.104910
Head 16.217450 -20.784588 -5.897047
LeftShoulder -4.204046 -10.128993 21.361200
LeftArm -6.523377 36.923825 -104.275109
LeftForeArm 3.794916 -0.000000 9.147772
LeftHand 10.278969 -0.000000 -8.262774
LeftHandThumb1 -26.253704 0.000000 33.147579
RightShoulder -13.520281 20.564326 -56.483976
RightArm 111.387204 55.115552 146.516190
RightForeArm 32.409759 -0.000000 108.912353
RightHand 32.784904 0.000000 -18.873942
RightHandThumb1 -24.326973 -0.000000 -32.862282
LeftUpLeg 9.127022 -9.001064 -2.253540
LeftLeg 2.170149 -0.000000 -0.000000
LeftFoot -12.601665 6.035674 -21.171541
LeftToeBase 18.898572 -0.000000 -0.000000
RightUpLeg 13.044609 -5.998772 2.109519
RightLeg -2.029952 -0.000000 0.000000
RightFoot -15.093730 -20.675558 17.017596
RightToeBase 11.890436 -0.000000 -0.000000
2965
root 4.183097 32.432124 1.148543 -3.807261 15.196774 2.114643
Spine -2.410691 8.973360 -2.072631
Head 16.115101 -20.672199 -5.798438
LeftShoulder -4.263218 -10.151006 21.376941
LeftArm -6.544568 36.708634 -104.315608
LeftForeArm 3.794530 -0.000000 9.080039
LeftHand 10.278347 -0.000000 -8.442523
LeftHandThumb1 -26.253704 0.000000 33.147579
RightShoulder -13.606857 20.294334 -56.435026
RightArm 111.279076 54.869825 146.343835
RightForeArm 32.038931 -0.000000 108.934821
RightHand 32.509081 0.000000 -18.652689
RightHandThumb1 -24.326973 -0.000000 -32.862282
LeftUpLeg 9.139344 -9.031336 -2.276612
LeftLeg 2.194602 -0.000000 -0.000000
LeftFoot -12.622935 6.028472 -21.178321
LeftToeBase 18.939363 -0.000000 -0.000000
RightUpLeg 13.076932 -6.052646 2.082534
RightLeg -2.029332 -0.000000 0.000000
RightFoot -15.111739 -20.641077 17.026954
RightToeBase 11.866247 -0.000000 -0.000000
2966
root 4.186769 32.428860 1.149477 -3.828342 15.219280 2.127565
Spine -2.402321 8.972132 -2.063282
Head 15.996458 -20.590596 -5.661333
LeftShoulder -4.311182 -10.127342 21.433115
LeftArm -6.542861 36.507552 -104.349186
LeftForeArm 3.955621 -0.000000 9.076441
LeftHand 10.175625 0.000000 -7.966029
LeftHandThumb1 -26.253704 0.000000 33.147579
RightShoulder -13.565491 19.604681 -56.184013
RightArm 111.766340 54.389990 146.504306
RightForeArm 31.947324 -0.000000 108.896111
RightHand 32.415889 0.000000 -18.641321
RightHandThumb1 -24.326973 -0.000000 -32.862282
LeftUpLeg 9.155761 -9.037340 -2.297455
LeftLeg 2.211896 -0.000000 -0.000000
LeftFoot -12.643286 6.004424 -21.187471
LeftToeBase 18.923856 -0.000000 -0.000000
RightUpLeg 13.112762 -6.069821 2.062840
RightLeg -2.037654 -0.000000 0.000000
RightFoot -15.146920 -20.646217 17.022500
RightToeBase 11.887126 -0.000000 -0.000000
2967
root 4.188950 32.428629 1.148732 -3.847594 15.229664 2.134359
Spine -2.390711 8.962329 -2.025805
Head 15.895093 -20.487281 -5.602679
LeftShoulder -4.364418 -10.083830 21.441655
LeftArm -6.529966 36.360562 -104.326187
LeftForeArm 3.986098 -0.000000 9.112782
LeftHand 10.110341 -0.000000 -7.967750
LeftHandThumb1 -26.253704 0.000000 33.147579
RightShoulder -13.647361 20.248422 -56.479119
RightArm 111.053941 55.025324 146.004606
RightForeArm 31.965625 -0.000000 108.903799
RightHand 32.334809 -0.000000 -18.588261
RightHandThumb1 -24.326973 -0.000000 -32.862282
LeftUpLeg 9.165875 -9.029594 -2.309744
LeftLeg 2.231012 -0.000000 -0.000000
LeftFoot -12.642993 5.992750 -21.158656
LeftToeBase 18.929990 -0.000000 -0.000000
RightUpLeg 13.122445 -6.118936 2.042138
RightLeg -2.009714 -0.000000 0.000000
RightFoot -15.166127 -20.610955 17.013800
RightToeBase 11.865339 -0.000000 -0.000000
2968
root 4.189913 32.427667 1.148319 -3.861076 15.230207 2.141956
Spine -2.385454 8.961130 -2.008197
Head 15.783017 -20.420255 -5.499047
LeftShoulder -4.405650 -10.060659 21.481192
LeftArm -6.556221 36.287717 -104.338697
LeftForeArm 3.932483 -0.000000 9.164483
LeftHand 10.148249 -0.000000 -7.960560
LeftHandThumb1 -26.253704 0.000000 33.147579
RightShoulder -13.703353 20.482801 -56.608131
RightArm 110.793014 55.211307 145.818044
RightForeArm 32.066619 -0.000000 108.840661
RightHand 32.343867 -0.000000 -18.577763
RightHandThumb1 -24.326973 -0.000000 -32.862282
LeftUpLeg 9.172365 -9.028700 -2.318515
LeftLeg 2.248344 -0.000000 -0.000000
LeftFoot -12.648355 5.975519 -21.191722
LeftToeBase 18.952472 -0.000000 -0.000000
RightUpLeg 13.136088 -6.125206 2.030964
RightLeg -2.003998 -0.000000 0.000000
RightFoot -15.174831 -20.609211 17.001573
RightToeBase 11.886060 -0.000000 -0.000000
2969
root 4.191546 32.424958 1.148841 -3.887008 15.231849 2.154588
Spine -2.358854 8.981284 -2.009944
Head 15.630759 -20.380544 -5.340164
LeftShoulder -4.445162 -10.016682 21.556036
LeftArm -6.539768 36.246774 -104.349908
LeftForeArm 3.889114 -0.000000 9.229370
LeftHand 10.147628 -0.000000 -7.980575
LeftHandThumb1 -26.253704 0.000000 33.147579
RightShoulder -13.646952 19.551446 -56.313650
RightArm 111.800195 54.318629 146.498799
RightForeArm 32.153237 0.000000 108.689353
RightHand 32.399216 -0.000000 -18.577150
RightHandThumb1 -24.326973 -0.000000 -32.862282
LeftUpLeg 9.193480 -9.017618 -2.336170
LeftLeg 2.269781 -0.000000 -0.000000
LeftFoot -12.669374 5.956851 -21.184736
LeftToeBase 18.915601 -0.000000 -0.000000
RightUpLeg 13.165747 -6.159579 2.007412
RightLeg -2.000573 -0.000000 0.000000
RightFoot -15.189861 -20.585125 16.968989
RightToeBase 11.854367 -0.000000 -0.000000
2970
root 4.190274 32.423559 1.149484 -3.905655 15.230664 2.157885
Spine -2.344056 8.991318 -2.006551
Head 15.476963 -20.327967 -5.175541
LeftShoulder -4.497810 -9.934298 21.617253
LeftArm -6.479807 36.260641 -104.311350
LeftForeArm 3.823929 -0.000000 9.308128
LeftHand 10.143257 0.000000 -8.138164
LeftHandThumb1 -26.253704 0.000000 33.147579
RightShoulder -13.632884 19.289261 -56.272786
RightArm 112.224793 54.025061 146.854709
RightForeArm 32.348596 -0.000000 108.559874
RightHand 32.536795 -0.000000 -18.555410
RightHandThumb1 -24.326973 -0.000000 -32.862282
LeftUpLeg 9.180109 -8.925761 -2.327515
LeftLeg 2.343349 -0.000000 -0.000000
LeftFoot -12.655124 5.872300 -21.055916
LeftToeBase 18.816351 -0.000000 -0.000000
RightUpLeg 13.188675 -6.176228 2.002300
RightLeg -2.004334 -0.000000 0.000000
RightFoot -15.200482 -20.567985 16.974624
RightToeBase 11.818663 -0.000000 -0.000000
